{"title":"Stand Up Guys 2012 DvDrip XviD Sample Included ~ rDX","uid":8034702,"size":713761742,"categoryP":"video","categoryS":"hd___movies","magnet":"?xt=urn:btih:69a5ca8ff56833194427ba98aadfd981e51121f0&amp;dn=Stand+Up+Guys+2012+DvDrip+XviD+Sample+Included+%7E+rDX&amp;tr=udp%3A%2F%2Ftracker.openbittorrent.com%3A80&amp;tr=udp%3A%2F%2Fopen.demonii.com%3A1337&amp;tr=udp%3A%2F%2Ftracker.coppersurfer.tk%3A6969&amp;tr=udp%3A%2F%2Fexodus.desync.com%3A6969","seeders":1,"leechers":0,"uploader":"basicssom","files":2,"time":1358496746,"description":"Stand Up Guys 2012 Movies DvDrip XviD Sample Included ~ rDX\n\n\nScreen Shots :\n &lt;a href=&quot;\nhttp://myimghosting.serveftp.com/StandUpGuys.html&quot; rel=&quot;nofollow&quot; target=&quot;_NEW&quot;&gt;\nhttp://myimghosting.serveftp.com/StandUpGuys.html&lt;/a&gt;\n &lt;a href=&quot;\nhttp://myimghost.cwahi.net/StandUpGuys.html&quot; rel=&quot;nofollow&quot; target=&quot;_NEW&quot;&gt;\nhttp://myimghost.cwahi.net/StandUpGuys.html&lt;/a&gt;\n\n\n\nFormat                                   : AVI\nFormat/Info                              : Audio Video Interleave\nFile size                                : 666 MiB\nDuration                                 : 1h 32mn\nOverall bit rate                         : 1 007 Kbps\nWriting library                          : MPlayer\n\nVideo\nID                                       : 0\nFormat                                   : MPEG-4 Visual\nFormat profile                           : Advanced Simple@L5\nFormat settings, BVOP                    : 2\nFormat settings, QPel                    : No\nFormat settings, GMC                     : No warppoints\nFormat settings, Matrix                  : Default (H.263)\nMuxing mode                              : Packed bitstream\nCodec ID                                 : XVID\nCodec ID/Hint                            : XviD\nDuration                                 : 1h 32mn\nBit rate                                 : 873 Kbps\nWidth                                    : 720 pixels\nHeight                                   : 304 pixels\nDisplay aspect ratio                     : 2.35:1\nFrame rate                               : 29.970 fps\nColor space                              : YUV\nChroma subsampling                       : 4:2:0\nBit depth                                : 8 bits\nScan type                                : Progressive\nCompression mode                         : Lossy\nBits/(Pixel*Frame)                       : 0.133\nStream size                              : 577 MiB (87%)\nWriting library                          : XviD 64\n\nAudio\nID                                       : 1\nFormat                                   : MPEG Audio\nFormat version                           : Version 1\nFormat profile                           : Layer 3\nMode                                     : Joint stereo\nMode extension                           : MS Stereo\nCodec ID                                 : 55\nCodec ID/Hint                            : MP3\nDuration                                 : 1h 32mn\nBit rate mode                            : Constant\nBit rate                                 : 128 Kbps\nChannel(s)                               : 2 channels\nSampling rate                            : 44.1 KHz\nCompression mode                         : Lossy\nStream size                              : 84.7 MiB (13%)\nAlignment                                : Split accross interleaves\nInterleave, duration                     : 500 ms (14.98 video frames)\nInterleave, preload duration             : 500 ms","torrent":{"xt":"urn:btih:69a5ca8ff56833194427ba98aadfd981e51121f0","amp;dn":"Stand+Up+Guys+2012+DvDrip+XviD+Sample+Included+%7E+rDX","amp;tr":["udp%3A%2F%2Ftracker.openbittorrent.com%3A80","udp%3A%2F%2Fopen.demonii.com%3A1337","udp%3A%2F%2Ftracker.coppersurfer.tk%3A6969","udp%3A%2F%2Fexodus.desync.com%3A6969"],"infoHash":"69a5ca8ff56833194427ba98aadfd981e51121f0","infoHashBuffer":{"type":"Buffer","data":[105,165,202,143,245,104,51,25,68,39,186,152,170,223,217,129,229,17,33,240]},"announce":[],"urlList":[]}}